<svg width="16" height="17" viewBox="0 0 16 17" fill="none" xmlns="http://www.w3.org/2000/svg">
<path d="M14.2646 11.0737C13.9386 11.1048 13.6437 11.2289 13.4109 11.4152C12.8521 11.8653 12.1847 12.1602 11.4706 12.1602H11.005C10.2599 12.1602 9.57698 11.8653 8.98715 11.3997C8.75432 11.2134 8.4594 11.1048 8.14897 11.0737C8.13344 11.0737 8.11792 11.0737 8.1024 11.0737C8.08688 11.0737 8.08688 11.0737 8.07136 11.0737C8.02479 11.0737 7.9627 11.0737 7.91614 11.0737C7.90062 11.0737 7.88509 11.0737 7.86957 11.0737C7.85405 11.0737 7.83853 11.0737 7.82301 11.0737C7.79196 11.0737 7.76092 11.0892 7.72987 11.0892C7.466 11.1358 7.21765 11.2445 7.00034 11.4152C6.44156 11.8653 5.77412 12.1602 5.06011 12.1602H4.59445C3.8494 12.1602 3.16644 11.8653 2.57661 11.3997C2.34378 11.2134 2.04887 11.1048 1.73843 11.0737C0.822641 10.9961 -1.52588e-05 11.7567 -1.52588e-05 12.6725C-1.52588e-05 13.5572 0.71399 14.2867 1.61426 14.2867C1.97126 14.2867 2.29722 14.1781 2.56109 13.9763C3.19749 13.5106 3.92702 13.2002 4.71863 13.2002H4.87385C5.66547 13.2002 6.41052 13.5106 7.06244 13.9763C7.09348 13.9918 7.12452 14.0229 7.15556 14.0384C7.21765 14.0694 7.27974 14.116 7.34183 14.147C7.35735 14.1626 7.38839 14.1626 7.40391 14.1781C7.48152 14.2091 7.55913 14.2402 7.65226 14.2557C7.66779 14.2557 7.68331 14.2557 7.69883 14.2557C7.79196 14.2712 7.88509 14.2867 7.99375 14.2867C8.00927 14.2867 8.00927 14.2867 8.02479 14.2867C8.1024 14.2867 8.16448 14.2867 8.24209 14.2712C8.25762 14.2712 8.25762 14.2712 8.27314 14.2712C8.28866 14.2712 8.30418 14.2712 8.3197 14.2712C8.35075 14.2712 8.38179 14.2557 8.41283 14.2402C8.4594 14.2246 8.49045 14.2247 8.53701 14.2091C8.58358 14.1936 8.63014 14.1781 8.67671 14.147C8.72327 14.1315 8.75432 14.1005 8.78536 14.085C8.8164 14.0694 8.86297 14.0384 8.89401 14.0073C8.90954 14.0073 8.90954 13.9918 8.92506 13.9918C9.56146 13.5262 10.291 13.2157 11.0826 13.2157H11.2378C12.045 13.2157 12.79 13.5262 13.4419 14.0073C13.7834 14.2557 14.218 14.3643 14.6992 14.2712C15.1028 14.1936 15.4442 13.9453 15.6771 13.6193C16.5618 12.362 15.4753 10.9651 14.2646 11.0737Z" fill="#80C2D6"/>
<path d="M11.2223 7.37948C10.8963 7.41053 10.6014 7.5347 10.3686 7.72096C9.80979 8.1711 9.14235 8.46601 8.42834 8.46601H7.96268C7.21763 8.46601 6.53467 8.1711 5.94484 7.70544C5.71201 7.51918 5.4171 7.41053 5.10666 7.37948C4.19087 7.30187 3.36821 8.06244 3.36821 8.97823C3.36821 9.86298 4.08221 10.5925 4.98248 10.5925C5.33949 10.5925 5.66545 10.4839 5.92932 10.2821C6.56572 9.81641 7.29524 9.50598 8.08686 9.50598H8.24208C9.04921 9.50598 9.79427 9.81641 10.4462 10.2976C10.7877 10.5459 11.2223 10.6546 11.7035 10.5615C12.107 10.4839 12.4485 10.2355 12.6813 9.90955C13.5195 8.68332 12.433 7.28635 11.2223 7.37948Z" fill="#40A3C1"/>
<path d="M8.11792 6.91385C9.00946 6.91385 9.73219 6.19112 9.73219 5.29958C9.73219 4.40804 9.00946 3.6853 8.11792 3.6853C7.22638 3.6853 6.50365 4.40804 6.50365 5.29958C6.50365 6.19112 7.22638 6.91385 8.11792 6.91385Z" fill="#0085AD"/>
</svg>
